<svg version="1.1" xmlns="http://www.w3.org/2000/svg" xmlns:xlink="http://www.w3.org/1999/xlink" width="345.96865" height="215.81155" viewBox="0,0,345.96865,215.81155"><g transform="translate(-60.59984,-29.03015)"><g data-paper-data="{&quot;isPaintingLayer&quot;:true}" fill-rule="nonzero" stroke-linecap="butt" stroke-linejoin="miter" stroke-miterlimit="10" stroke-dasharray="" stroke-dashoffset="0" style="mix-blend-mode: normal"><path d="M61.59984,227.22917c0,0 78.81767,-56.51742 78.81767,-85.78473c0,-29.71784 -78.81767,-91.19139 -78.81767,-91.19139c0,0 54.62419,51.11919 90.51927,49.19579c18.68843,-1.00141 14.49776,-61.70358 32.81386,-54.90345c9.63349,3.57658 -12.58745,37.38085 -6.53294,54.58312c2.63345,7.48228 13.2811,-1.31903 21.57135,1.64194c12.04937,4.30359 22.82368,18.41767 27.58962,18.41767c0.71428,0 7.423,-4.86813 8.84035,-15.59821c3.44487,-26.07943 2.87019,-73.5211 6.72468,-73.55975c9.18192,-0.09207 -3.69243,45.31298 7.11042,64.23304c11.8576,20.76737 47.23979,14.88522 53.18733,6.44988c12.08755,-17.14369 -11.73713,-57.19297 1.02133,-62.28149c13.5522,-5.40508 10.39589,76.6963 22.90934,77.11213c34.62161,1.15048 78.37889,-65.29064 78.37889,-65.29064c0,0 -55.5054,60.80794 -55.5054,89.83973c0,29.9327 55.5054,87.1364 55.5054,87.1364c0,0 -45.46223,-52.05 -78.60549,-59.04679c-6.09901,-1.28755 -16.35348,6.98176 -19.59799,17.88523c-3.33927,11.22189 0.35212,25.07383 -4.59751,22.70763c-15.34676,-7.33663 -2.34432,-39.66456 -13.18234,-39.82961c-11.14105,-0.16968 -28.62319,-3.42134 -28.03223,10.43196c0.61368,14.38604 19.32486,45.84047 8.16918,42.47073c-12.6525,-3.82186 -16.91253,-33.0547 -23.48066,-47.35024c-4.47219,-9.73376 -11.20534,-6.74227 -17.73519,-6.74227c-7.36848,0 -24.79749,-14.8656 -36.0781,4.14114c-10.43682,17.58505 -14.65146,69.03081 -23.67827,71.82885c-11.39781,3.53297 8.35407,-74.88614 -2.43833,-74.99241c-40.7343,-0.40107 -104.87658,58.4958 -104.87658,58.4958z" fill="#9966ff" stroke="#000000" stroke-width="2"/><text transform="translate(147.4298,153.10571) scale(0.71178,0.86666)" font-size="40" xml:space="preserve" fill="#000000" fill-rule="nonzero" stroke="none" stroke-width="1" stroke-linecap="butt" stroke-linejoin="miter" stroke-miterlimit="10" stroke-dasharray="" stroke-dashoffset="0" font-family="Sans Serif" font-weight="normal" text-anchor="start" style="mix-blend-mode: normal"><tspan x="0" dy="0">MATH AND ME</tspan></text></g></g></svg>