<svg version="1.1" xmlns="http://www.w3.org/2000/svg" xmlns:xlink="http://www.w3.org/1999/xlink" width="234.33725" height="209.34642" viewBox="0,0,234.33725,209.34642"><g transform="translate(-29.29799,31.01967)"><g data-paper-data="{&quot;isPaintingLayer&quot;:true}" fill-rule="nonzero" stroke-linecap="butt" stroke-linejoin="miter" stroke-miterlimit="10" stroke-dasharray="" stroke-dashoffset="0" style="mix-blend-mode: normal"><path d="M30.22203,165.87843c0,0 32.86489,-79.43523 32.84977,-107.74154c-0.01214,-22.72636 -33.4571,5.96284 -29.84608,-3.98871c6.29013,-17.33483 41.59308,-11.17298 41.59308,-11.17298c0,0 10.66033,-4.0711 2.1849,-12.15471c-6.7038,-6.39387 -34.88971,-17.20013 -23.35425,-17.20013c0.78978,0 45.79098,20.67707 61.05904,10.50001c11.50771,-7.67057 -8.74875,-47.4983 5.92925,-44.80032c10.22287,1.87907 19.85212,30.35744 29.67581,41.05783c14.44582,15.73501 27.9997,14.68131 33.72918,11.45914c17.83582,-10.03056 -49.27802,-64.94838 -28.17644,-61.71997c19.73824,3.01983 37.9868,59.8878 53.9686,73.96436c22.91935,20.18705 39.98391,-1.10621 39.98391,-1.10621c0,0 11.85484,-58.24891 11.85484,-44.1129c0,6.43516 2.76276,37.14344 -1.07755,65.043c-0.68355,4.96596 -9.77577,3.82999 -10.29848,8.92877c-0.52538,5.12483 8.77538,9.63114 8.62773,15.21629c-0.18929,7.16005 -17.05255,-4.19428 -18.876,1.84893c-2.54011,8.41831 9.76947,33.07592 9.76947,33.07592c0,0 -44.96888,-25.04549 -59.80185,-20.36061c-11.51904,3.6382 8.13221,37.75398 -2.02424,35.16407c-15.56876,-3.97006 -14.28888,-37.32626 -26.92872,-32.07616c-5.95825,2.47483 30.37306,68.55649 23.16851,69.16385c-0.42397,0.03574 -68.36991,-74.42407 -69.41822,-74.35187c-10.15768,0.69954 20.59331,77.40573 16.81593,76.8088c-27.14902,-4.29033 -29.22408,-80.73382 -44.29374,-77.78962c-25.45955,4.9741 -57.11443,66.34477 -57.11443,66.34477z" fill="#ff66f6" stroke="#000000" stroke-width="2"/><text transform="translate(70.96396,87.32631) scale(0.27377,0.91555)" font-size="40" xml:space="preserve" fill="#000000" fill-rule="nonzero" stroke="none" stroke-width="1" stroke-linecap="butt" stroke-linejoin="miter" stroke-miterlimit="10" stroke-dasharray="" stroke-dashoffset="0" font-family="Sans Serif" font-weight="normal" text-anchor="start" style="mix-blend-mode: normal"><tspan x="0" dy="0">ADDITION AND SUBTRACTION</tspan></text></g></g></svg>