<svg version="1.1" xmlns="http://www.w3.org/2000/svg" xmlns:xlink="http://www.w3.org/1999/xlink" width="184.47005" height="109.65303" viewBox="0,0,184.47005,109.65303"><g transform="translate(-167.61708,-42.70873)"><g data-paper-data="{&quot;isPaintingLayer&quot;:true}" fill-rule="nonzero" stroke-linecap="butt" stroke-linejoin="miter" stroke-miterlimit="10" stroke-dasharray="" stroke-dashoffset="0" style="mix-blend-mode: normal"><path d="M177.44591,141.5771c0,0 13.75485,-17.98216 15.42972,-32.00735c0.84435,-7.07051 -8.46698,-8.66024 -9.8097,-15.49578c-2.30185,-11.7183 -15.32205,-26.71049 -14.40242,-30.69894c2.20933,-9.5819 22.7824,30.06206 22.7824,23.06191c0,-10.47285 -9.5,-33.68821 -9.5,-33.68821c0,0 24.67538,-15.05122 45.81748,-6.31149c4.48212,1.85282 -38.70766,6.86665 -35.18514,13.84073c4.94105,9.78258 56.31601,21.97076 61.18527,21.97076c25.63216,0 79.32361,-29.5 79.32361,-29.5c0,0 -18.73146,21.08137 -13.49549,29.68418c3.30261,5.42627 31.49549,-1.94001 31.49549,2.00403c0,6.76051 -15.1529,-1.99611 -19.16753,7.76971c-4.89712,11.91251 1.16753,41.87045 1.16753,41.87045c0,0 1.71581,-9.89515 -20.82755,-8.19237c-1.8211,0.13755 -6.80015,-4.55435 -17.93987,2.67883c-5.46581,3.54903 -13.55367,20.2189 -21.26388,21.79936c-0.88712,0.18184 8.12097,-12.69664 3.33798,-12.01363c-5.29767,0.75651 -24.45245,14.97508 -25.96163,12.78304c-2.58661,-3.75698 9.83526,-16.2936 8.01314,-15.8849c-17.03157,3.82016 -47.56433,12.94847 -49.92145,13.32393c-27.04068,4.30725 23.32729,-7.86136 10.47887,-10.20426c-1.59926,-0.29162 26.27381,-7.27797 51.94461,-14.11316c5.4426,-1.44916 8.39857,-4.32411 13.61372,-5.531c16.58971,-3.8392 30.74242,-2.87125 34.27512,-4.62643c14.29563,-7.10262 -52.40644,-0.9576 -57.58258,-0.98832c-3.75145,-0.02226 -21.99222,-7.32011 -37.02828,0.6445c-6.38027,3.37963 -12.55894,7.00397 -16.96694,13.33241c-4.54617,6.52681 -7.24076,15.70705 -8.4595,15.5596c-15.83527,-1.91577 19.00547,-29.62144 10.69534,-26.35103c-10.28089,4.04599 -32.04831,25.28344 -32.04831,25.28344z" fill="#ff0000" stroke="#000000" stroke-width="2"/><text transform="translate(191.47335,101.91591) scale(0.5,0.5)" font-size="40" xml:space="preserve" fill="#000000" fill-rule="nonzero" stroke="none" stroke-width="1" stroke-linecap="butt" stroke-linejoin="miter" stroke-miterlimit="10" stroke-dasharray="" stroke-dashoffset="0" font-family="Marker" font-weight="normal" text-anchor="start" style="mix-blend-mode: normal"><tspan x="0" dy="0">SUBTRACTION</tspan></text></g></g></svg>