<svg version="1.1" xmlns="http://www.w3.org/2000/svg" xmlns:xlink="http://www.w3.org/1999/xlink" width="142.8365" height="125.38051" viewBox="0,0,142.8365,125.38051"><g transform="translate(-36.96671,-96.31462)"><g data-paper-data="{&quot;isPaintingLayer&quot;:true}" fill-rule="nonzero" stroke-linejoin="miter" stroke-miterlimit="10" stroke-dasharray="" stroke-dashoffset="0" style="mix-blend-mode: normal"><path d="M95.01226,220.25507c0,0 7.15491,-14.29491 23.87797,-21.24973c9.08951,-3.78016 27.65809,0.23707 34.17762,-3.01827c6.67762,-3.33428 -14.20595,-30.46178 -10.25587,-39.35483c6.33993,-14.27345 35.44472,-11.33523 35.44472,-11.33523c0,0 -37.71378,-16.59564 -43.05158,-28.52499c-3.72162,-8.31739 26.95657,-12.12706 18.54553,-15.89206c-7.39135,-3.30856 -37.13795,18.25817 -41.15467,15.87503c-9.44777,-5.6054 -16.47659,-20.19037 -16.47659,-20.19037c0,0 4.98012,12.33199 4.89253,22.11814c-0.07081,7.91098 -34.31827,-4.47195 -35.34699,12.48272c-0.58829,9.69591 19.22354,-11.95281 23.6137,1.32757c2.54579,7.7011 -29.3165,17.68365 -28.40197,28.98056c0.57402,7.09071 22.76094,-10.23165 26.2624,-3.20341c3.5963,7.21861 -51.02696,24.54203 -49.9053,34.46061c0.36771,3.2516 20.16233,-13.31079 31.44672,-18.34052c9.12733,-4.06827 9.67348,3.17541 13.50969,5.00031c17.11815,8.14317 12.82209,40.86446 12.82209,40.86446z" fill="#13ff00" stroke="#000000" stroke-width="0.5" stroke-linecap="round"/><text transform="translate(100.78822,139.35619) scale(0.35403,0.35403)" font-size="40" xml:space="preserve" fill="#000000" fill-rule="nonzero" stroke="none" stroke-width="1" stroke-linecap="butt" stroke-linejoin="miter" stroke-miterlimit="10" stroke-dasharray="" stroke-dashoffset="0" font-family="Sans Serif" font-weight="normal" text-anchor="start" style="mix-blend-mode: normal"><tspan x="0" dy="0">return</tspan><tspan x="0" dy="46.15px">to</tspan><tspan x="0" dy="46.15px">main</tspan><tspan x="0" dy="46.15px">screen</tspan></text></g></g></svg>