<svg version="1.1" xmlns="http://www.w3.org/2000/svg" xmlns:xlink="http://www.w3.org/1999/xlink" width="159.29846" height="110.56656" viewBox="0,0,159.29846,110.56656"><g transform="translate(-469.73602,-83.9023)"><g data-paper-data="{&quot;isPaintingLayer&quot;:true}" fill-rule="nonzero" stroke-linecap="butt" stroke-linejoin="miter" stroke-miterlimit="10" stroke-dasharray="" stroke-dashoffset="0" style="mix-blend-mode: normal"><path d="M470.73602,193.46886c0,0 22,-27.29952 22,-40.46886c0,-13.90058 -22,-40.85951 -22,-40.85951c0,0 24.86847,22 36.64122,22c2.37096,0 -0.05928,-21.46383 6.80634,-22.71468c2.45172,-0.44668 0.27637,7.1426 4.26766,10.14777c6.37111,4.79701 19.16681,5.65373 21.48075,1.91361c7.44805,-12.03865 2.49454,-38.74712 9.47087,-38.58414c6.54138,0.15282 3.73452,32.20556 9.10138,45.04387c4.82969,11.55331 17.80006,4.12312 24.02029,2.69437c15.88886,-3.64956 39.3527,-20.50079 39.3527,-20.50079c0,0 -25,27.44154 -25,40.85951c0,13.68617 25,40.46886 25,40.46886c0,0 -33.76373,-28 -48.5,-28c-4.44581,0 10.11087,28 6.07621,28c-7.65616,0 -16.27531,-19.72287 -23.90123,-25.69239c-8.31288,-6.50726 -15.82208,0.69239 -29.17498,0.69239c-3.45524,0 1.50406,22.82817 -2.79452,24.18305c-8.07145,2.54406 -8.62313,-25.8951 -18.17365,-26.10437c-13.30857,-0.29162 -34.67305,26.92132 -34.67305,26.92132z" fill="#ff8600" stroke="#000000" stroke-width="2"/><text transform="translate(503.00161,158.32732) scale(0.5,0.5)" font-size="40" xml:space="preserve" fill="#000000" fill-rule="nonzero" stroke="none" stroke-width="1" stroke-linecap="butt" stroke-linejoin="miter" stroke-miterlimit="10" stroke-dasharray="" stroke-dashoffset="0" font-family="Marker" font-weight="normal" text-anchor="start" style="mix-blend-mode: normal"><tspan x="0" dy="0">ADDITION</tspan></text></g></g></svg>