<svg version="1.1" xmlns="http://www.w3.org/2000/svg" xmlns:xlink="http://www.w3.org/1999/xlink" width="151.45675" height="94.34481" viewBox="0,0,151.45675,94.34481"><g transform="translate(-12.5582,-315.62322)"><g data-paper-data="{&quot;isPaintingLayer&quot;:true}" fill-rule="nonzero" stroke-linecap="butt" stroke-linejoin="miter" stroke-miterlimit="10" stroke-dasharray="" stroke-dashoffset="0" style="mix-blend-mode: normal"><path d="M18.18423,405.0587c0,0 48.17742,-55.04178 48.17742,-64.32941c0,-2.36945 -48.17742,-8.67059 -48.17742,-8.67059c0,0 44.20358,0.39334 82.08474,-3.99275c5.46304,-0.63254 -43.42901,31.90756 -36.44204,29.69659c9.87605,-3.12519 75.38162,-41.13933 78.54279,-41.13933c5.46149,0 -61.546,39.96023 -58.49421,41.02093c11.59716,4.03078 79.30872,-25.58545 79.30872,-25.58545c0,0 -24.79032,11.81873 -24.79032,24.57382c0,11.43337 24.79032,48.42618 24.79032,48.42618c0,0 -12.8297,-18.28266 -26.34337,-22.06517c-4.13628,-1.15776 -49.54556,-8.67598 -53.89875,4.34399c-3.58204,10.71355 10.14668,0.04094 20.13022,2.05351c11.68914,2.3564 20.44657,-1.39622 15.91053,-1.4436c-7.69883,-0.08041 -44.44193,23.07189 -51.38684,5.17183c-8.6743,-22.35747 -5.81305,-9.10895 -10.35535,-9.10895c-7.14912,0 -39.05645,21.04839 -39.05645,21.04839z" fill="#fff100" stroke="#000000" stroke-width="2"/><text transform="translate(50.10249,376.59867) scale(0.5,0.5)" font-size="40" xml:space="preserve" fill="#000000" fill-rule="nonzero" stroke="none" stroke-width="1" stroke-linecap="butt" stroke-linejoin="miter" stroke-miterlimit="10" stroke-dasharray="" stroke-dashoffset="0" font-family="Marker" font-weight="normal" text-anchor="start" style="mix-blend-mode: normal"><tspan x="0" dy="0">RANDOM</tspan></text></g></g></svg>